:SAMPLES-PER-SECOND 30
:FULLY-SPECIFIED
:DEGREES
929
root  12.6582 40.7658 8.46959 71.4293 88.1464 72.5372
RightUpLeg  -3.6043 -10.741 -9.2266
RightLeg  6.91335 -8.62211 2.91751
RightFoot  1.0685 -0.0389277 0.380735
RightToes  0.000481921 0.542163 -0.142578
Spine  6.49577 -1.23621 -0.0981158
Spine1  1.00635 -1.6563 2.0169
HEad  28.4738 5.62337 -1.80871
LeftShoulder1  5.82732 -8.98415 -40.3688
LeftArm  -10.9724 18.9084 -33.507
LeftForeArm  -179.682 -47.9347 -169.465
LeftHand  -0.25398 0.0180481 5.50724
RightShoulder  3.23556 5.18282 31.2911
RightArm  -2.32831 -14.6575 43.4761
RightForeArm  169.437 52.5518 166.82
RightHand  -0.938027 3.10607 -13.0577
LeftUpLeg  -0.230402 6.44731 4.85177
LeftLeg  1.04801 17.6118 -4.50095
LeftFoot  2.11838 0.278489 -2.51408
LeftToes  1.06247e-005 4.65869e-005 -8.65511e-006
930
root  12.644 40.7631 8.47271 72.9697 88.1817 74.0748
RightUpLeg  -3.6368 -10.7318 -9.19303
RightLeg  6.94558 -8.69051 2.89564
RightFoot  1.06579 -0.0387159 0.377448
RightToes  0.000481921 0.542163 -0.142578
Spine  6.592 -1.25984 -0.173043
Spine1  0.862623 -1.69114 2.06921
HEad  26.8811 5.24857 -1.49513
LeftShoulder1  5.83719 -9.0043 -40.3726
LeftArm  -10.9147 18.8522 -33.5211
LeftForeArm  -179.723 -47.9541 -169.455
LeftHand  -0.25398 0.0180481 5.50724
RightShoulder  3.24906 5.24007 31.2012
RightArm  -2.38862 -14.541 43.4819
RightForeArm  169.621 52.5034 166.856
RightHand  -0.951722 3.23696 -13.0551
LeftUpLeg  -0.316847 6.47414 4.87958
LeftLeg  1.15973 17.5407 -4.4802
LeftFoot  2.09765 0.279008 -2.51382
LeftToes  1.06247e-005 4.65869e-005 -8.65511e-006
931
root  12.6345 40.7608 8.47328 74.7266 88.2072 75.8234
RightUpLeg  -3.65835 -10.7454 -9.18296
RightLeg  6.96245 -8.74337 2.89334
RightFoot  1.06078 -0.0387085 0.377332
RightToes  0.000481921 0.542163 -0.142578
Spine  6.6943 -1.28814 -0.26882
Spine1  0.695565 -1.73809 2.15774
HEad  25.1895 4.86886 -1.25774
LeftShoulder1  5.85831 -9.03795 -40.4137
LeftArm  -10.8835 18.9019 -33.4718
LeftForeArm  -179.742 -47.9958 -169.439
LeftHand  -0.25398 0.0180481 5.50724
RightShoulder  3.25753 5.2708 31.1674
RightArm  -2.51334 -14.5829 43.4332
RightForeArm  169.885 52.4297 166.909
RightHand  -0.993848 3.64172 -13.0396
LeftUpLeg  -0.389156 6.48307 4.887
LeftLeg  1.24381 17.4776 -4.45849
LeftFoot  2.07408 0.279094 -2.50992
LeftToes  1.06247e-005 4.65869e-005 -8.65511e-006
932
root  12.6295 40.7589 8.47115 75.9742 88.2171 77.0653
RightUpLeg  -3.67119 -10.7762 -9.19605
RightLeg  6.98255 -8.7531 2.90525
RightFoot  1.04734 -0.0388123 0.378944
RightToes  0.000481921 0.542163 -0.142578
Spine  6.72826 -1.30054 -0.359929
Spine1  0.622794 -1.77373 2.26567
HEad  23.4392 4.41789 -1.15277
LeftShoulder1  5.90824 -9.11664 -40.5128
LeftArm  -10.8943 18.9972 -33.346
LeftForeArm  -179.729 -48.0356 -169.425
LeftHand  -0.25398 0.0180481 5.50724
RightShoulder  3.25266 5.26147 31.1512
RightArm  -2.58591 -14.7071 43.3909
RightForeArm  169.887 52.3654 166.938
RightHand  -1.04312 3.96282 -13.2243
LeftUpLeg  -0.436788 6.47322 4.87383
LeftLeg  1.29796 17.4481 -4.43403
LeftFoot  2.05359 0.277647 -2.48603
LeftToes  1.06247e-005 4.65869e-005 -8.65511e-006
933
root  12.6264 40.7575 8.46838 76.1439 88.2152 77.2242
RightUpLeg  -3.69918 -10.7795 -9.19725
RightLeg  7.00958 -8.75343 2.8921
RightFoot  1.03615 -0.0389277 0.380735
RightToes  0.000481921 0.542163 -0.142578
Spine  6.66883 -1.30026 -0.4165
Spine1  0.657346 -1.79091 2.34235
HEad  21.7253 3.88268 -1.09403
LeftShoulder1  5.96137 -9.20676 -40.5949
LeftArm  -10.9435 19.0882 -33.244
LeftForeArm  -179.75 -48.0851 -169.406
LeftHand  -0.25398 0.0180481 5.50724
RightShoulder  3.25082 5.25264 31.1678
RightArm  -2.62419 -14.8208 43.3994
RightForeArm  169.667 52.3398 166.933
RightHand  -1.0616 3.95819 -13.4577
LeftUpLeg  -0.471526 6.47131 4.86429
LeftLeg  1.33137 17.4491 -4.42691
LeftFoot  2.04033 0.276046 -2.4644
LeftToes  1.06247e-005 4.65869e-005 -8.65511e-006
934
root  12.6232 40.7576 8.46514 75.1007 88.2034 76.1775
RightUpLeg  -3.73116 -10.7289 -9.17239
RightLeg  7.02723 -8.77315 2.83447
RightFoot  1.04098 -0.0393998 0.388065
RightToes  0.000481921 0.542163 -0.142578
Spine  6.62833 -1.3106 -0.424389
Spine1  0.644948 -1.79915 2.33137
HEad  20.2512 3.38465 -0.942384
LeftShoulder1  5.96659 -9.23737 -40.5277
LeftArm  -10.9811 19.1916 -33.289
LeftForeArm  -179.818 -48.1265 -169.386
LeftHand  -0.25398 0.0180481 5.50724
RightShoulder  3.27232 5.28221 31.2885
RightArm  -2.66715 -14.9176 43.4028
RightForeArm  169.507 52.3438 166.919
RightHand  -1.05512 3.82293 -13.5622
LeftUpLeg  -0.477781 6.49412 4.87156
LeftLeg  1.3422 17.4633 -4.45271
LeftFoot  2.0318 0.274641 -2.45126
LeftToes  1.06247e-005 4.65869e-005 -8.65511e-006
935
root  12.6191 40.7574 8.45993 72.8942 88.1755 73.9893
RightUpLeg  -3.75353 -10.6529 -9.14314
RightLeg  7.04654 -8.77511 2.75353
RightFoot  1.04912 -0.0409476 0.41209
RightToes  0.000481921 0.542163 -0.142578
Spine  6.66939 -1.33297 -0.426661
Spine1  0.524598 -1.81063 2.28734
HEad  19.1797 3.05883 -0.701161
LeftShoulder1  5.92279 -9.19772 -40.3402
LeftArm  -10.9801 19.2788 -33.4371
LeftForeArm  -179.944 -48.1184 -169.381
LeftHand  -0.25398 0.0180481 5.50724
RightShoulder  3.30808 5.33773 31.4608
RightArm  -2.65378 -15.0137 43.3835
RightForeArm  169.455 52.3728 166.902
RightHand  -1.05902 3.80829 -13.631
LeftUpLeg  -0.447895 6.52984 4.8823
LeftLeg  1.34332 17.4961 -4.49601
LeftFoot  2.01782 0.271811 -2.42491
LeftToes  1.06247e-005 4.65869e-005 -8.65511e-006
936
root  12.6141 40.7558 8.45272 69.5805 88.1318 70.7037
RightUpLeg  -3.78308 -10.5943 -9.12245
RightLeg  7.09078 -8.70557 2.6849
RightFoot  1.0413 -0.0430896 0.445339
RightToes  0.000481921 0.542163 -0.142578
Spine  6.67572 -1.33388 -0.470549
Spine1  0.455473 -1.81978 2.33252
HEad  18.4455 2.87184 -0.492229
LeftShoulder1  5.89447 -9.1637 -40.2473
LeftArm  -10.9675 19.2382 -33.4988
LeftForeArm  179.856 -48.082 -169.38
LeftHand  -0.25398 0.0180481 5.50724
RightShoulder  3.32487 5.37681 31.4856
RightArm  -2.54479 -15.0545 43.4397
RightForeArm  169.368 52.4461 166.862
RightHand  -1.06813 3.81188 -13.7398
LeftUpLeg  -0.420654 6.55723 4.88458
LeftLeg  1.37749 17.5737 -4.51604
LeftFoot  1.98825 0.266819 -2.38586
LeftToes  1.06247e-005 4.65869e-005 -8.65511e-006
937
root  12.6083 40.7525 8.44506 65.5629 88.0883 66.7133
RightUpLeg  -3.81844 -10.5599 -9.0962
RightLeg  7.14127 -8.57975 2.64645
RightFoot  1.02836 -0.044719 0.470632
RightToes  0.000481921 0.542163 -0.142578
Spine  6.58387 -1.29696 -0.517532
Spine1  0.506842 -1.8082 2.45439
HEad  17.8735 2.68825 -0.33157
LeftShoulder1  5.92076 -9.19251 -40.3431
LeftArm  -10.9382 19.0572 -33.4084
LeftForeArm  179.663 -48.0925 -169.364
LeftHand  -0.25398 0.0180481 5.50724
RightShoulder  3.31295 5.38593 31.3119
RightArm  -2.42684 -15.0158 43.5903
RightForeArm  169.257 52.5384 166.812
RightHand  -1.04943 3.62937 -13.7635
LeftUpLeg  -0.424609 6.574 4.89127
LeftLeg  1.47427 17.6893 -4.48887
LeftFoot  1.93919 0.264193 -2.36928
LeftToes  1.06247e-005 4.65869e-005 -8.65511e-006
938
root  12.601 40.7492 8.43789 61.9128 88.0598 63.1065
RightUpLeg  -3.82202 -10.5385 -9.06341
RightLeg  7.16283 -8.46641 2.6327
RightFoot  1.03284 -0.0458126 0.487607
RightToes  0.000481921 0.542163 -0.142578
Spine  6.55357 -1.26006 -0.509571
Spine1  0.474463 -1.78264 2.51846
HEad  17.405 2.48769 -0.0947252
LeftShoulder1  5.95746 -9.23984 -40.4519
LeftArm  -10.8506 18.8985 -33.3217
LeftForeArm  179.62 -48.1698 -169.333
LeftHand  -0.25398 0.0180481 5.50724
RightShoulder  3.30262 5.39211 31.1688
RightArm  -2.3803 -15.0009 43.6615
RightForeArm  169.256 52.5722 166.797
RightHand  -1.01202 3.37056 -13.6568
LeftUpLeg  -0.431401 6.59561 4.91578
LeftLeg  1.60679 17.7842 -4.43981
LeftFoot  1.87672 0.263906 -2.38459
LeftToes  1.06247e-005 4.65869e-005 -8.65511e-006
939
root  12.5905 40.7468 8.43103 59.7537 88.0424 61.015
RightUpLeg  -3.78949 -10.5342 -9.05159
RightLeg  7.17119 -8.40238 2.62656
RightFoot  1.04845 -0.0473109 0.510863
RightToes  0.000481921 0.542163 -0.142578
Spine  6.70746 -1.26719 -0.491947
Spine1  0.227645 -1.78104 2.50074
HEad  17.0491 2.36298 0.250104
LeftShoulder1  5.95264 -9.24079 -40.4129
LeftArm  -10.7497 18.8818 -33.3532
LeftForeArm  179.705 -48.2484 -169.309
LeftHand  -0.25398 0.0180481 5.50724
RightShoulder  3.31436 5.40844 31.233
RightArm  -2.36719 -15.0865 43.5363
RightForeArm  169.347 52.5324 166.822
RightHand  -0.99492 3.29074 -13.5495
LeftUpLeg  -0.413145 6.6295 4.9433
LeftLeg  1.72148 17.8126 -4.4162
LeftFoot  1.81828 0.263309 -2.39202
LeftToes  1.06247e-005 4.65869e-005 -8.65511e-006
940
root  12.5761 40.7445 8.42459 59.041 88.0206 60.3652
RightUpLeg  -3.77537 -10.5485 -9.06876
RightLeg  7.21222 -8.36565 2.60946
RightFoot  1.05286 -0.0486211 0.5312
RightToes  0.000481921 0.542163 -0.142578
Spine  6.89271 -1.30865 -0.541612
Spine1  -0.0219856 -1.82046 2.50812
HEad  16.7424 2.3167 0.540143
LeftShoulder1  5.92482 -9.21164 -40.3074
LeftArm  -10.7386 18.9231 -33.4139
LeftForeArm  179.755 -48.2766 -169.302
LeftHand  -0.25398 0.0180481 5.50724
RightShoulder  3.32598 5.40967 31.3593
RightArm  -2.33715 -15.1828 43.3705
RightForeArm  169.399 52.5055 166.838
RightHand  -1.00136 3.39732 -13.4788
LeftUpLeg  -0.395415 6.66374 4.95045
LeftLeg  1.799 17.8017 -4.42841
LeftFoot  1.78148 0.260703 -2.36651
LeftToes  1.06247e-005 4.65869e-005 -8.65511e-006
941
root  12.5588 40.7419 8.41877 58.5243 87.9854 59.8809
RightUpLeg  -3.81422 -10.5629 -9.08673
RightLeg  7.28547 -8.31809 2.57675
RightFoot  1.04705 -0.0480363 0.522123
RightToes  0.000481921 0.542163 -0.142578
Spine  6.92435 -1.34152 -0.621434
Spine1  -0.0536199 -1.86624 2.56571
HEad  16.4257 2.23363 0.632956
LeftShoulder1  5.91403 -9.19942 -40.2694
LeftArm  -10.783 18.8971 -33.4259
LeftForeArm  179.744 -48.2794 -169.301
LeftHand  -0.25398 0.0180481 5.50724
RightShoulder  3.31533 5.38668 31.3357
RightArm  -2.31932 -15.1884 43.3576
RightForeArm  169.412 52.5481 166.82
RightHand  -1.00409 3.5048 -13.3607
LeftUpLeg  -0.408778 6.68055 4.93537
LeftLeg  1.85635 17.8174 -4.44182
LeftFoot  1.76663 0.257754 -2.33534
LeftToes  1.06247e-005 4.65869e-005 -8.65511e-006
